<svg xmlns="http://www.w3.org/2000/svg" xmlns:xlink="http://www.w3.org/1999/xlink" version="1.1" width="256" height="256" viewBox="0 0 256 256" xml:space="preserve">

<defs>
</defs>
<g style="stroke: none; stroke-width: 0; stroke-dasharray: none; stroke-linecap: butt; stroke-linejoin: miter; stroke-miterlimit: 10; fill: none; fill-rule: nonzero; opacity: 1;" transform="translate(1.4065934065934016 1.4065934065934016) scale(2.81 2.81)" >
	<path d="M 77.265 30.613 c -0.042 -0.003 -0.086 -0.005 -0.128 -0.007 c -8.193 -0.58 -19.094 3.647 -29.002 11.714 c -0.102 -0.123 -0.212 -0.24 -0.331 -0.351 C 61.334 26.591 65.488 -0.709 44.764 0.013 c -19.108 0.486 -17.755 22.868 -2.521 41.743 c -0.118 0.101 -0.231 0.21 -0.336 0.328 c -0.005 0.005 -0.01 0.011 -0.016 0.017 C 26.566 28.555 -0.604 24.317 0.01 45.004 c 0.389 19.141 22.852 17.869 41.824 2.66 c 0.119 0.119 0.247 0.232 0.387 0.335 c -13.562 15.363 -17.752 42.7 2.987 41.989 c 19.156 -0.477 17.761 -22.972 2.427 -41.886 c 0.011 -0.009 0.023 -0.018 0.034 -0.028 c 0.114 -0.099 0.221 -0.205 0.321 -0.316 c 15.4 13.526 42.764 17.645 41.993 -3.097 c -0.251 -9.033 -5.386 -13.481 -12.721 -14.046 C 77.263 30.614 77.264 30.614 77.265 30.613 z" style="stroke: none; stroke-width: 1; stroke-dasharray: none; stroke-linecap: butt; stroke-linejoin: miter; stroke-miterlimit: 10; fill: rgb(74,125,225); fill-rule: nonzero; opacity: 1;" transform=" matrix(1 0 0 1 0 0) " stroke-linecap="round" />
	<path d="M 57.661 11.951 c -0.032 0.028 -0.064 0.057 -0.096 0.085 c -6.204 5.384 -10.923 16.08 -12.225 28.791 c -0.159 -0.015 -0.32 -0.02 -0.483 -0.014 C 43.552 20.372 27.185 -1.87 13.042 13.295 c -13.167 13.855 3.616 28.725 27.734 31.3 c -0.012 0.155 -0.015 0.312 -0.006 0.47 c 0 0.008 0.001 0.015 0.001 0.023 C 20.357 46.345 -1.853 62.56 13.209 76.754 c 13.81 13.26 28.794 -3.523 31.455 -27.693 c 0.169 0 0.339 -0.011 0.51 -0.037 c 1.273 20.453 17.641 42.746 31.803 27.578 c 13.208 -13.883 -3.685 -28.803 -27.901 -31.334 c 0.001 -0.015 0.003 -0.029 0.005 -0.044 c 0.01 -0.151 0.011 -0.301 0.004 -0.45 C 69.538 43.449 91.8 27.012 76.588 12.89 c -6.565 -6.21 -13.341 -5.724 -18.927 -0.937 C 57.661 11.953 57.661 11.952 57.661 11.951 z" style="stroke: none; stroke-width: 1; stroke-dasharray: none; stroke-linecap: butt; stroke-linejoin: miter; stroke-miterlimit: 10; fill: rgb(147,177,235); fill-rule: nonzero; opacity: 1;" transform=" matrix(1 0 0 1 0 0) " stroke-linecap="round" />
	<circle cx="44.936" cy="44.946" r="13.666" style="stroke: none; stroke-width: 1; stroke-dasharray: none; stroke-linecap: butt; stroke-linejoin: miter; stroke-miterlimit: 10; fill: rgb(41,84,168); fill-rule: nonzero; opacity: 1;" transform="  matrix(1 0 0 1 0 0) "/>
</g>
</svg>