<svg xmlns="http://www.w3.org/2000/svg" xmlns:xlink="http://www.w3.org/1999/xlink" version="1.1" width="256" height="256" viewBox="0 0 256 256" xml:space="preserve">

<defs>
</defs>
<g style="stroke: none; stroke-width: 0; stroke-dasharray: none; stroke-linecap: butt; stroke-linejoin: miter; stroke-miterlimit: 10; fill: none; fill-rule: nonzero; opacity: 1;" transform="translate(1.4065934065934016 1.4065934065934016) scale(2.81 2.81)" >
	<path d="M 41.945 19.185 V 0.055 c -22.46 1.48 -40.409 19.43 -41.889 41.889 h 19.129 C 20.58 30.029 30.029 20.58 41.945 19.185 z" style="stroke: none; stroke-width: 1; stroke-dasharray: none; stroke-linecap: butt; stroke-linejoin: miter; stroke-miterlimit: 10; fill: rgb(96,183,210); fill-rule: nonzero; opacity: 1;" transform=" matrix(1 0 0 1 0 0) " stroke-linecap="round" />
	<path d="M 47.945 0.055 v 19.115 C 60.917 20.634 71 31.637 71 45 c 0 14.359 -11.641 26 -26 26 c -13.363 0 -24.366 -10.083 -25.829 -23.055 H 0.055 c 1.545 23.453 21.046 42 44.889 42 c 24.853 0 45 -20.147 45 -45 C 89.945 21.101 71.397 1.601 47.945 0.055 z" style="stroke: none; stroke-width: 1; stroke-dasharray: none; stroke-linecap: butt; stroke-linejoin: miter; stroke-miterlimit: 10; fill: rgb(173,222,238); fill-rule: nonzero; opacity: 1;" transform=" matrix(1 0 0 1 0 0) " stroke-linecap="round" />
</g>
</svg>