<svg xmlns="http://www.w3.org/2000/svg" xmlns:xlink="http://www.w3.org/1999/xlink" version="1.1" width="256" height="256" viewBox="0 0 256 256" xml:space="preserve">

<defs>
</defs>
<g style="stroke: none; stroke-width: 0; stroke-dasharray: none; stroke-linecap: butt; stroke-linejoin: miter; stroke-miterlimit: 10; fill: rgb(154,208,236); fill-rule: nonzero; opacity: 1;" transform="translate(0 -2.842170943040401e-14) scale(2.81 2.81)" >
	<path d="M 45 90 C 20.187 90 0 69.814 0 45 C 0 20.187 20.187 0 45 0 c 24.814 0 45 20.187 45 45 C 90 69.814 69.814 90 45 90 z M 45 5.625 C 23.289 5.625 5.625 23.289 5.625 45 c 0 21.712 17.664 39.375 39.375 39.375 c 21.712 0 39.375 -17.663 39.375 -39.375 C 84.375 23.289 66.712 5.625 45 5.625 z" style="stroke: none; stroke-width: 1; stroke-dasharray: none; stroke-linecap: butt; stroke-linejoin: miter; stroke-miterlimit: 10; fill: rgb(154,208,236); fill-rule: nonzero; opacity: 1;" transform=" matrix(1 0 0 1 0 0) " stroke-linecap="round" />
</g>
<g style="stroke: none; stroke-width: 0; stroke-dasharray: none; stroke-linecap: butt; stroke-linejoin: miter; stroke-miterlimit: 10; fill: none; fill-rule: nonzero; opacity: 1;" transform="translate(10.519733787339405 10.519733787339376) scale(2.62 2.62)" >
	<circle cx="45" cy="45" r="45" style="stroke: none; stroke-width: 1; stroke-dasharray: none; stroke-linecap: butt; stroke-linejoin: miter; stroke-miterlimit: 10; fill: rgb(98,184,228); fill-rule: nonzero; opacity: 1;" transform="  matrix(1 0 0 1 0 0) "/>
	<path d="M 48.601 48.545 c 5.698 -2.801 9.639 -8.649 9.639 -15.415 c 0 -9.476 -7.709 -17.185 -17.185 -17.185 S 23.871 23.654 23.871 33.13 c 0 6.925 4.126 12.89 10.041 15.609 c -7.837 1.448 -13.795 8.32 -13.795 16.57 v 9.82 c 0 1.657 1.343 3 3 3 h 37.548 c 1.657 0 3 -1.343 3 -3 v -9.82 C 63.665 56.618 57.056 49.447 48.601 48.545 z M 29.871 33.13 c 0 -6.167 5.018 -11.185 11.185 -11.185 S 52.24 26.963 52.24 33.13 c 0 6.167 -5.018 11.184 -11.185 11.184 S 29.871 39.296 29.871 33.13 z" style="stroke: none; stroke-width: 1; stroke-dasharray: none; stroke-linecap: butt; stroke-linejoin: miter; stroke-miterlimit: 10; fill: rgb(85,159,196); fill-rule: nonzero; opacity: 1;" transform=" matrix(1 0 0 1 0 0) " stroke-linecap="round" />
	<path d="M 51.171 45.285 c 6.364 -2.52 10.884 -8.721 10.884 -15.971 c 0 -9.475 -7.709 -17.184 -17.184 -17.184 s -17.184 7.709 -17.184 17.184 c 0 7.272 4.548 13.488 10.942 15.993 c -8.565 0.795 -15.295 8.016 -15.295 16.785 v 9.82 c 0 1.657 1.343 3 3 3 h 37.549 c 1.657 0 3 -1.343 3 -3 v -9.82 C 66.884 53.181 59.933 45.881 51.171 45.285 z" style="stroke: none; stroke-width: 1; stroke-dasharray: none; stroke-linecap: butt; stroke-linejoin: miter; stroke-miterlimit: 10; fill: rgb(255,255,255); fill-rule: nonzero; opacity: 1;" transform=" matrix(1 0 0 1 0 0) " stroke-linecap="round" />
</g>
</svg>