<svg xmlns="http://www.w3.org/2000/svg" xmlns:xlink="http://www.w3.org/1999/xlink" version="1.1" width="256" height="256" viewBox="0 0 256 256" xml:space="preserve">

<defs>
</defs>
<g style="stroke: none; stroke-width: 0; stroke-dasharray: none; stroke-linecap: butt; stroke-linejoin: miter; stroke-miterlimit: 10; fill: none; fill-rule: nonzero; opacity: 1;" transform="translate(1.4065934065934016 1.4065934065934016) scale(2.81 2.81)" >
	<path d="M 87.839 90 H 2.161 c -1.081 0 -1.957 -0.876 -1.957 -1.957 s 0.876 -1.957 1.957 -1.957 h 85.678 c 1.081 0 1.957 0.876 1.957 1.957 S 88.92 90 87.839 90 z" style="stroke: none; stroke-width: 1; stroke-dasharray: none; stroke-linecap: butt; stroke-linejoin: miter; stroke-miterlimit: 10; fill: rgb(255,255,255); fill-rule: nonzero; opacity: 1;" transform=" matrix(1 0 0 1 0 0) " stroke-linecap="round" />
	<rect x="8.66" y="56.63" rx="0" ry="0" width="13.4" height="31.41" style="stroke: none; stroke-width: 1; stroke-dasharray: none; stroke-linecap: butt; stroke-linejoin: miter; stroke-miterlimit: 10; fill: rgb(255,255,255); fill-rule: nonzero; opacity: 1;" transform=" matrix(1 0 0 1 0 0) "/>
	<path d="M 22.055 90 H 8.656 c -1.081 0 -1.957 -0.876 -1.957 -1.957 V 56.635 c 0 -1.081 0.876 -1.957 1.957 -1.957 h 13.399 c 1.081 0 1.957 0.876 1.957 1.957 v 31.408 C 24.013 89.124 23.136 90 22.055 90 z M 10.614 86.085 h 9.484 V 58.592 h -9.484 V 86.085 z" style="stroke: none; stroke-width: 1; stroke-dasharray: none; stroke-linecap: butt; stroke-linejoin: miter; stroke-miterlimit: 10; fill: rgb(255,255,255); fill-rule: nonzero; opacity: 1;" transform=" matrix(1 0 0 1 0 0) " stroke-linecap="round" />
	<rect x="38.42" y="30.99" rx="0" ry="0" width="13.4" height="57.05" style="stroke: none; stroke-width: 1; stroke-dasharray: none; stroke-linecap: butt; stroke-linejoin: miter; stroke-miterlimit: 10; fill: rgb(255,255,255); fill-rule: nonzero; opacity: 1;" transform=" matrix(1 0 0 1 0 0) "/>
	<path d="M 51.817 90 H 38.419 c -1.081 0 -1.957 -0.876 -1.957 -1.957 V 30.994 c 0 -1.081 0.876 -1.957 1.957 -1.957 h 13.398 c 1.081 0 1.957 0.876 1.957 1.957 v 57.049 C 53.774 89.124 52.898 90 51.817 90 z M 40.376 86.085 h 9.484 V 32.951 h -9.484 V 86.085 z" style="stroke: none; stroke-width: 1; stroke-dasharray: none; stroke-linecap: butt; stroke-linejoin: miter; stroke-miterlimit: 10; fill: rgb(255,255,255); fill-rule: nonzero; opacity: 1;" transform=" matrix(1 0 0 1 0 0) " stroke-linecap="round" />
	<polygon points="87.29,16.63 74.88,1.92 62.47,16.63 68.18,16.63 68.18,88.04 81.58,88.04 81.58,16.63 " style="stroke: none; stroke-width: 1; stroke-dasharray: none; stroke-linecap: butt; stroke-linejoin: miter; stroke-miterlimit: 10; fill: rgb(255,255,255); fill-rule: nonzero; opacity: 1;" transform="  matrix(1 0 0 1 0 0) "/>
	<path d="M 81.579 90 H 68.18 c -1.081 0 -1.957 -0.876 -1.957 -1.957 V 18.584 h -3.757 c -0.762 0 -1.455 -0.442 -1.775 -1.133 c -0.321 -0.69 -0.212 -1.505 0.279 -2.087 L 73.384 0.661 c 0.744 -0.881 2.248 -0.881 2.991 0 L 88.79 15.364 c 0.491 0.582 0.6 1.396 0.279 2.087 c -0.32 0.691 -1.013 1.133 -1.775 1.133 h -3.758 v 69.459 C 83.536 89.124 82.66 90 81.579 90 z M 70.138 86.085 h 9.484 V 16.627 c 0 -1.081 0.876 -1.957 1.957 -1.957 h 1.5 l -8.2 -9.712 l -8.2 9.712 h 1.5 c 1.081 0 1.957 0.876 1.957 1.957 V 86.085 z" style="stroke: none; stroke-width: 1; stroke-dasharray: none; stroke-linecap: butt; stroke-linejoin: miter; stroke-miterlimit: 10; fill: rgb(255,255,255); fill-rule: nonzero; opacity: 1;" transform=" matrix(1 0 0 1 0 0) " stroke-linecap="round" />
</g>
</svg>