<?xml version="1.0" standalone="no"?>
<!DOCTYPE svg PUBLIC "-//W3C//DTD SVG 20010904//EN" "http://www.w3.org/TR/2001/REC-SVG-20010904/DTD/svg10.dtd">
<!-- Created using Krita: https://krita.org -->
<svg xmlns="http://www.w3.org/2000/svg" 
    xmlns:xlink="http://www.w3.org/1999/xlink"
    xmlns:krita="http://krita.org/namespaces/svg/krita"
    xmlns:sodipodi="http://sodipodi.sourceforge.net/DTD/sodipodi-0.dtd"
    width="144pt"
    height="144pt"
    viewBox="0 0 144 144">
<defs/>
<ellipse id="shape0" transform="translate(2.64, 3.6)" rx="69.72" ry="66.36" cx="69.72" cy="66.36" fill="none" stroke="#ffffff" stroke-width="1.4232" stroke-linecap="square" stroke-linejoin="bevel"/><ellipse id="shape1" transform="matrix(0.928875571849557 0 0 0.912343404683322 6.96878639499323 9.11688972896209)" rx="69.72" ry="66.36" cx="69.72" cy="66.36" fill="none" stroke="#ffffff" stroke-width="1.4232" stroke-linecap="square" stroke-linejoin="bevel"/><ellipse id="shape2" transform="matrix(0.849767975597705 0 0 0.827536472744753 11.6467159397661 14.8702513367534)" rx="69.72" ry="66.36" cx="69.72" cy="66.36" fill="none" stroke="#ffffff" stroke-width="1.4232" stroke-linecap="square" stroke-linejoin="bevel"/><ellipse id="shape3" transform="matrix(0.785481864681322 0 0 0.762439259878848 16.0408161355416 18.8343767990283)" rx="69.72" ry="66.36" cx="69.72" cy="66.36" fill="none" stroke="#ffffff" stroke-width="1.4232" stroke-linecap="square" stroke-linejoin="bevel"/><ellipse id="shape4" transform="matrix(0.724275433379328 0 0 0.696373044279378 20.0677634620821 23.0428744227655)" rx="69.72" ry="66.36" cx="69.72" cy="66.36" fill="none" stroke="#ffffff" stroke-width="1.4232" stroke-linecap="square" stroke-linejoin="bevel"/><ellipse id="shape5" transform="matrix(0.647767418346575 0 0 0.614446759461026 25.0414507682126 29.2578277342276)" rx="69.72" ry="66.36" cx="69.72" cy="66.36" fill="none" stroke="#ffffff" stroke-width="1.4232" stroke-linecap="square" stroke-linejoin="bevel"/><ellipse id="shape6" transform="matrix(0.564883751243002 0 0 0.538533966908603 30.9096078631291 34.6012640064639)" rx="69.72" ry="66.36" cx="69.72" cy="66.36" fill="none" stroke="#ffffff" stroke-width="1.4232" stroke-linecap="square" stroke-linejoin="bevel"/><ellipse id="shape7" transform="matrix(0.495123975169513 0 0 0.460072031263959 36.5565495337849 39.325317030121)" rx="69.72" ry="66.36" cx="69.72" cy="66.36" fill="none" stroke="#ffffff" stroke-width="1.4232" stroke-linecap="square" stroke-linejoin="bevel"/>
</svg>
