<svg xmlns="http://www.w3.org/2000/svg" xmlns:xlink="http://www.w3.org/1999/xlink" version="1.1" width="256" height="256" viewBox="0 0 256 256" xml:space="preserve">

<defs>
</defs>
<g style="stroke: none; stroke-width: 0; stroke-dasharray: none; stroke-linecap: butt; stroke-linejoin: miter; stroke-miterlimit: 10; fill: none; fill-rule: nonzero; opacity: 1;" transform="translate(1.4065934065934016 1.4065934065934016) scale(2.81 2.81)" >
	<path d="M 44.315 60.29 c -0.552 0 -1 -0.447 -1 -1 V 26.729 c 0 -0.552 0.448 -1 1 -1 s 1 0.448 1 1 V 59.29 C 45.315 59.843 44.868 60.29 44.315 60.29 z" style="stroke: none; stroke-width: 1; stroke-dasharray: none; stroke-linecap: butt; stroke-linejoin: miter; stroke-miterlimit: 10; fill: rgb(19,62,135); fill-rule: nonzero; opacity: 1;" transform=" matrix(1 0 0 1 0 0) " stroke-linecap="round" />
	<path d="M 44.314 56.264 c -0.147 0 -0.297 -0.032 -0.439 -0.103 c -0.496 -0.242 -0.701 -0.842 -0.458 -1.338 c 1.817 -3.706 5.042 -6.676 9.588 -8.826 c 0.503 -0.237 1.096 -0.022 1.332 0.476 c 0.235 0.499 0.022 1.096 -0.477 1.332 c -4.126 1.951 -7.036 4.608 -8.648 7.898 C 45.04 56.058 44.684 56.264 44.314 56.264 z" style="stroke: none; stroke-width: 1; stroke-dasharray: none; stroke-linecap: butt; stroke-linejoin: miter; stroke-miterlimit: 10; fill: rgb(19,62,135); fill-rule: nonzero; opacity: 1;" transform=" matrix(1 0 0 1 0 0) " stroke-linecap="round" />
	<path d="M 44.316 56.268 c -0.37 0 -0.725 -0.206 -0.899 -0.56 c -1.612 -3.29 -4.522 -5.948 -8.648 -7.899 c -0.499 -0.236 -0.712 -0.833 -0.476 -1.332 c 0.235 -0.5 0.833 -0.711 1.332 -0.477 c 4.546 2.15 7.772 5.12 9.589 8.827 c 0.243 0.496 0.038 1.096 -0.458 1.339 C 44.614 56.235 44.464 56.268 44.316 56.268 z" style="stroke: none; stroke-width: 1; stroke-dasharray: none; stroke-linecap: butt; stroke-linejoin: miter; stroke-miterlimit: 10; fill: rgb(19,62,135); fill-rule: nonzero; opacity: 1;" transform=" matrix(1 0 0 1 0 0) " stroke-linecap="round" />
	<path d="M 26.423 50.82 c -3.14 -2.825 -5.5 -6.433 -7.352 -10.551 c 4.134 -1.816 8.304 -2.913 12.527 -2.906 c 4.313 0.007 7.449 4.257 6.135 8.365 c -0.155 0.485 -0.345 0.984 -0.571 1.498 c -0.177 0.533 -0.37 1.031 -0.58 1.495 C 34.805 52.651 29.63 53.705 26.423 50.82 z" style="stroke: none; stroke-width: 1; stroke-dasharray: none; stroke-linecap: butt; stroke-linejoin: miter; stroke-miterlimit: 10; fill: rgb(19,62,135); fill-rule: nonzero; opacity: 1;" transform=" matrix(1 0 0 1 0 0) " stroke-linecap="round" />
	<path d="M 63.577 51.119 c 3.14 -2.825 5.5 -6.433 7.352 -10.551 c -4.134 -1.816 -8.304 -2.913 -12.527 -2.906 c -4.313 0.007 -7.449 4.257 -6.135 8.365 c 0.155 0.485 0.345 0.984 0.571 1.498 c 0.177 0.533 0.37 1.031 0.58 1.495 C 55.195 52.95 60.37 54.004 63.577 51.119 z" style="stroke: none; stroke-width: 1; stroke-dasharray: none; stroke-linecap: butt; stroke-linejoin: miter; stroke-miterlimit: 10; fill: rgb(19,62,135); fill-rule: nonzero; opacity: 1;" transform=" matrix(1 0 0 1 0 0) " stroke-linecap="round" />
	<path d="M 30.107 20.692 c 1.729 0.652 3.522 0.988 5.383 0.907 c -1.554 1.029 -2.808 2.356 -3.824 3.9 c -4.266 6.487 5.271 13.416 10.122 7.354 c 1.155 -1.443 2.03 -3.046 2.528 -4.843 c 0.498 1.795 1.371 3.396 2.525 4.839 c 4.85 6.064 14.39 -0.868 10.122 -7.354 c -1.015 -1.543 -2.269 -2.868 -3.822 -3.897 c 1.861 0.081 3.654 -0.255 5.382 -0.906 c 7.265 -2.739 3.621 -13.954 -3.866 -11.899 c -1.781 0.489 -3.428 1.271 -4.886 2.43 c 0.653 -1.747 0.888 -3.559 0.801 -5.407 c -0.363 -7.756 -12.149 -7.756 -12.512 0 c -0.086 1.848 0.148 3.659 0.801 5.406 c -1.458 -1.16 -3.106 -1.942 -4.888 -2.431 C 26.486 6.739 22.843 17.952 30.107 20.692 z" style="stroke: none; stroke-width: 1; stroke-dasharray: none; stroke-linecap: butt; stroke-linejoin: miter; stroke-miterlimit: 10; fill: rgb(255,255,255); fill-rule: nonzero; opacity: 1;" transform=" matrix(1 0 0 1 0 0) " stroke-linecap="round" />
	<circle cx="44.314" cy="18.734" r="4.914" style="stroke: none; stroke-width: 1; stroke-dasharray: none; stroke-linecap: butt; stroke-linejoin: miter; stroke-miterlimit: 10; fill: rgb(19,62,135); fill-rule: nonzero; opacity: 1;" transform="  matrix(1 0 0 1 0 0) "/>
	<polygon points="56.55,90 32.08,90 27.18,59.29 61.45,59.29 " style="stroke: none; stroke-width: 1; stroke-dasharray: none; stroke-linecap: butt; stroke-linejoin: miter; stroke-miterlimit: 10; fill: rgb(198,198,198); fill-rule: nonzero; opacity: 1;" transform="  matrix(1 0 0 1 0 0) "/>
	<polygon points="63.87,67.79 65.22,59.29 23.41,59.29 24.76,67.79 " style="stroke: none; stroke-width: 1; stroke-dasharray: none; stroke-linecap: butt; stroke-linejoin: miter; stroke-miterlimit: 10; fill: rgb(211,211,211); fill-rule: nonzero; opacity: 1;" transform="  matrix(1 0 0 1 0 0) "/>
</g>
</svg>