<?xml version="1.0" standalone="no"?>
<!DOCTYPE svg PUBLIC "-//W3C//DTD SVG 20010904//EN" "http://www.w3.org/TR/2001/REC-SVG-20010904/DTD/svg10.dtd">
<!-- Created using Krita: https://krita.org -->
<svg xmlns="http://www.w3.org/2000/svg" 
    xmlns:xlink="http://www.w3.org/1999/xlink"
    xmlns:krita="http://krita.org/namespaces/svg/krita"
    xmlns:sodipodi="http://sodipodi.sourceforge.net/DTD/sodipodi-0.dtd"
    width="624pt"
    height="9.6pt"
    viewBox="0 0 624 9.6">
<defs/>
<path id="shape0" transform="translate(4.31999968160117, 4.8)" fill="none" stroke="#ffffff" stroke-width="2.2368" stroke-linecap="square" stroke-linejoin="miter" stroke-miterlimit="2" d="M0 0L4.86 0" sodipodi:nodetypes="cc"/><path id="shape1" transform="translate(15.1199988856041, 4.8)" fill="none" stroke="#ffffff" stroke-width="2.2368" stroke-linecap="square" stroke-linejoin="miter" stroke-miterlimit="2" d="M0 0L1.08 0" sodipodi:nodetypes="cc"/><path id="shape2" transform="translate(21.5999984080059, 4.8)" fill="none" stroke="#ffffff" stroke-width="2.2368" stroke-linecap="square" stroke-linejoin="miter" stroke-miterlimit="2" d="M0 0L5.76 0" sodipodi:nodetypes="cc"/><path id="shape3" transform="translate(32.5799975987422, 4.8)" fill="none" stroke="#ffffff" stroke-width="2.2368" stroke-linecap="square" stroke-linejoin="miter" stroke-miterlimit="2" d="M0 0L0.72 0" sodipodi:nodetypes="cc"/><path id="shape4" transform="translate(37.6199972272769, 4.8)" fill="none" stroke="#ffffff" stroke-width="2.2368" stroke-linecap="square" stroke-linejoin="miter" stroke-miterlimit="2" d="M0 0L6.12 0" sodipodi:nodetypes="cc"/><path id="shape5" transform="translate(49.6799963384135, 4.8)" fill="none" stroke="#ffffff" stroke-width="2.2368" stroke-linecap="square" stroke-linejoin="miter" stroke-miterlimit="2" d="M0 0L0.72 0" sodipodi:nodetypes="cc"/><path id="shape6" transform="translate(56.1599958608153, 4.8)" fill="none" stroke="#ffffff" stroke-width="2.2368" stroke-linecap="square" stroke-linejoin="miter" stroke-miterlimit="2" d="M0 0L4.68 0" sodipodi:nodetypes="cc"/><path id="shape7" transform="translate(67.319995038285, 4.8)" fill="none" stroke="#ffffff" stroke-width="2.2368" stroke-linecap="square" stroke-linejoin="miter" stroke-miterlimit="2" d="M0 0L1.8 0" sodipodi:nodetypes="cc"/><path id="shape8" transform="translate(73.9799945474201, 4.8)" fill="none" stroke="#ffffff" stroke-width="2.2368" stroke-linecap="square" stroke-linejoin="miter" stroke-miterlimit="2" d="M0 0L6.3 0" sodipodi:nodetypes="cc"/><path id="shape9" transform="translate(84.779993751423, 4.8)" fill="none" stroke="#ffffff" stroke-width="2.2368" stroke-linecap="square" stroke-linejoin="miter" stroke-miterlimit="2" d="M0 0L1.98 0" sodipodi:nodetypes="cc"/><path id="shape10" transform="translate(93.5999931013588, 4.8)" fill="none" stroke="#ffffff" stroke-width="2.2368" stroke-linecap="square" stroke-linejoin="miter" stroke-miterlimit="2" d="M0 0L5.04 0" sodipodi:nodetypes="cc"/><path id="shape11" transform="translate(103.679992358428, 4.8)" fill="none" stroke="#ffffff" stroke-width="2.2368" stroke-linecap="square" stroke-linejoin="miter" stroke-miterlimit="2" d="M0 0L0.72 0" sodipodi:nodetypes="cc"/><path id="shape12" transform="translate(108.53999200023, 4.8)" fill="none" stroke="#ffffff" stroke-width="2.2368" stroke-linecap="square" stroke-linejoin="miter" stroke-miterlimit="2" d="M0 0L6.48 0" sodipodi:nodetypes="cc"/><path id="shape13" transform="translate(120.7799910981, 4.8)" fill="none" stroke="#ffffff" stroke-width="2.2368" stroke-linecap="square" stroke-linejoin="miter" stroke-miterlimit="2" d="M0 0L0.72 0" sodipodi:nodetypes="cc"/><path id="shape14" transform="translate(126.539990673568, 4.8)" fill="none" stroke="#ffffff" stroke-width="2.2368" stroke-linecap="square" stroke-linejoin="miter" stroke-miterlimit="2" d="M0 0L5.76 0" sodipodi:nodetypes="cc"/><path id="shape15" transform="translate(138.419989797971, 4.8)" fill="none" stroke="#ffffff" stroke-width="2.2368" stroke-linecap="square" stroke-linejoin="miter" stroke-miterlimit="2" d="M0 0L1.08 0" sodipodi:nodetypes="cc"/><path id="shape16" transform="translate(144.359989360173, 4.8)" fill="none" stroke="#ffffff" stroke-width="2.2368" stroke-linecap="square" stroke-linejoin="miter" stroke-miterlimit="2" d="M0 0L6.48 0" sodipodi:nodetypes="cc"/><path id="shape17" transform="translate(155.879988511109, 4.8)" fill="none" stroke="#ffffff" stroke-width="2.2368" stroke-linecap="square" stroke-linejoin="miter" stroke-miterlimit="2" d="M0 0L0.9 0" sodipodi:nodetypes="cc"/><path id="shape18" transform="translate(160.919988139644, 4.8)" fill="none" stroke="#ffffff" stroke-width="2.2368" stroke-linecap="square" stroke-linejoin="miter" stroke-miterlimit="2" d="M0 0L6.3 0" sodipodi:nodetypes="cc"/><path id="shape19" transform="translate(172.97998725078, 4.8)" fill="none" stroke="#ffffff" stroke-width="2.2368" stroke-linecap="square" stroke-linejoin="miter" stroke-miterlimit="2" d="M0 0L1.26 0" sodipodi:nodetypes="cc"/><path id="shape20" transform="translate(179.099986799715, 4.8)" fill="none" stroke="#ffffff" stroke-width="2.2368" stroke-linecap="square" stroke-linejoin="miter" stroke-miterlimit="2" d="M0 0L6.66 0" sodipodi:nodetypes="cc"/><path id="shape21" transform="translate(191.519985884319, 4.8)" fill="none" stroke="#ffffff" stroke-width="2.2368" stroke-linecap="square" stroke-linejoin="miter" stroke-miterlimit="2" d="M0 0L1.98 0" sodipodi:nodetypes="cc"/><path id="shape22" transform="translate(199.619985287321, 4.8)" fill="none" stroke="#ffffff" stroke-width="2.2368" stroke-linecap="square" stroke-linejoin="miter" stroke-miterlimit="2" d="M0 0L4.86 0" sodipodi:nodetypes="cc"/><path id="shape23" transform="translate(210.059984517857, 4.8)" fill="none" stroke="#ffffff" stroke-width="2.2368" stroke-linecap="square" stroke-linejoin="miter" stroke-miterlimit="2" d="M0 0L1.8 0" sodipodi:nodetypes="cc"/><path id="shape24" transform="translate(217.259983987192, 4.8)" fill="none" stroke="#ffffff" stroke-width="2.2368" stroke-linecap="square" stroke-linejoin="miter" stroke-miterlimit="2" d="M0 0L5.4 0" sodipodi:nodetypes="cc"/><path id="shape25" transform="translate(228.059983191195, 4.8)" fill="none" stroke="#ffffff" stroke-width="2.2368" stroke-linecap="square" stroke-linejoin="miter" stroke-miterlimit="2" d="M0 0L0.54 0" sodipodi:nodetypes="cc"/><path id="shape26" transform="translate(233.819982766664, 4.8)" fill="none" stroke="#ffffff" stroke-width="2.2368" stroke-linecap="square" stroke-linejoin="miter" stroke-miterlimit="2" d="M0 0L6.3 0" sodipodi:nodetypes="cc"/><path id="shape27" transform="translate(244.979981944133, 4.8)" fill="none" stroke="#ffffff" stroke-width="2.2368" stroke-linecap="square" stroke-linejoin="miter" stroke-miterlimit="2" d="M0 0L0.54 0" sodipodi:nodetypes="cc"/><path id="shape28" transform="translate(251.459981466535, 4.8)" fill="none" stroke="#ffffff" stroke-width="2.2368" stroke-linecap="square" stroke-linejoin="miter" stroke-miterlimit="2" d="M0 0L5.58 0" sodipodi:nodetypes="cc"/><path id="shape29" transform="translate(262.439980657271, 4.8)" fill="none" stroke="#ffffff" stroke-width="2.2368" stroke-linecap="square" stroke-linejoin="miter" stroke-miterlimit="2" d="M0 0L1.08 0" sodipodi:nodetypes="cc"/><path id="shape30" transform="translate(268.73998019294, 4.8)" fill="none" stroke="#ffffff" stroke-width="2.2368" stroke-linecap="square" stroke-linejoin="miter" stroke-miterlimit="2" d="M0 0L4.86 0" sodipodi:nodetypes="cc"/><path id="shape31" transform="translate(278.639979463276, 4.8)" fill="none" stroke="#ffffff" stroke-width="2.2368" stroke-linecap="square" stroke-linejoin="miter" stroke-miterlimit="2" d="M0 0L1.08 0" sodipodi:nodetypes="cc"/><path id="shape32" transform="translate(284.759979012211, 4.8)" fill="none" stroke="#ffffff" stroke-width="2.2368" stroke-linecap="square" stroke-linejoin="miter" stroke-miterlimit="2" d="M0 0L6.3 0" sodipodi:nodetypes="cc"/><path id="shape33" transform="translate(297.179978096814, 4.8)" fill="none" stroke="#ffffff" stroke-width="2.2368" stroke-linecap="square" stroke-linejoin="miter" stroke-miterlimit="2" d="M0 0L0.36 0" sodipodi:nodetypes="cc"/><path id="shape34" transform="translate(302.759977685549, 4.8)" fill="none" stroke="#ffffff" stroke-width="2.2368" stroke-linecap="square" stroke-linejoin="miter" stroke-miterlimit="2" d="M0 0L6.12 0" sodipodi:nodetypes="cc"/><path id="shape35" transform="translate(315.179976770152, 4.8)" fill="none" stroke="#ffffff" stroke-width="2.2368" stroke-linecap="square" stroke-linejoin="miter" stroke-miterlimit="2" d="M0 0L1.08 0" sodipodi:nodetypes="cc"/><path id="shape36" transform="translate(321.299976319087, 4.8)" fill="none" stroke="#ffffff" stroke-width="2.2368" stroke-linecap="square" stroke-linejoin="miter" stroke-miterlimit="2" d="M0 0L5.58 0" sodipodi:nodetypes="cc"/><path id="shape37" transform="translate(332.999975456757, 4.8)" fill="none" stroke="#ffffff" stroke-width="2.2368" stroke-linecap="square" stroke-linejoin="miter" stroke-miterlimit="2" d="M0 0L0.72 0" sodipodi:nodetypes="cc"/><path id="shape38" transform="translate(339.659974965892, 4.8)" fill="none" stroke="#ffffff" stroke-width="2.2368" stroke-linecap="square" stroke-linejoin="miter" stroke-miterlimit="2" d="M0 0L5.58 0" sodipodi:nodetypes="cc"/><path id="shape39" transform="translate(350.999974130095, 4.8)" fill="none" stroke="#ffffff" stroke-width="2.2368" stroke-linecap="square" stroke-linejoin="miter" stroke-miterlimit="2" d="M0 0L0.36 0" sodipodi:nodetypes="cc"/><path id="shape40" transform="translate(356.939973692297, 4.8)" fill="none" stroke="#ffffff" stroke-width="2.2368" stroke-linecap="square" stroke-linejoin="miter" stroke-miterlimit="2" d="M0 0L6.66 0" sodipodi:nodetypes="cc"/><path id="shape41" transform="translate(369.539972763634, 4.8)" fill="none" stroke="#ffffff" stroke-width="2.2368" stroke-linecap="square" stroke-linejoin="miter" stroke-miterlimit="2" d="M0 0L1.26 0" sodipodi:nodetypes="cc"/><path id="shape42" transform="translate(376.199972272769, 4.8)" fill="none" stroke="#ffffff" stroke-width="2.2368" stroke-linecap="square" stroke-linejoin="miter" stroke-miterlimit="2" d="M0 0L5.22 0" sodipodi:nodetypes="cc"/><path id="shape43" transform="translate(386.999971476772, 4.8)" fill="none" stroke="#ffffff" stroke-width="2.2368" stroke-linecap="square" stroke-linejoin="miter" stroke-miterlimit="2" d="M0 0L0.72 0" sodipodi:nodetypes="cc"/><path id="shape44" transform="translate(392.579971065507, 4.8)" fill="none" stroke="#ffffff" stroke-width="2.2368" stroke-linecap="square" stroke-linejoin="miter" stroke-miterlimit="2" d="M0 0L6.66 0" sodipodi:nodetypes="cc"/><path id="shape45" transform="translate(405.359970123577, 4.8)" fill="none" stroke="#ffffff" stroke-width="2.2368" stroke-linecap="square" stroke-linejoin="miter" stroke-miterlimit="2" d="M0 0L1.08 0" sodipodi:nodetypes="cc"/><path id="shape46" transform="translate(411.659969659245, 4.8)" fill="none" stroke="#ffffff" stroke-width="2.2368" stroke-linecap="square" stroke-linejoin="miter" stroke-miterlimit="2" d="M0 0L5.94 0" sodipodi:nodetypes="cc"/><path id="shape47" transform="translate(423.179968810182, 4.8)" fill="none" stroke="#ffffff" stroke-width="2.2368" stroke-linecap="square" stroke-linejoin="miter" stroke-miterlimit="2" d="M0 0L0.9 0" sodipodi:nodetypes="cc"/><path id="shape48" transform="translate(429.119968372383, 4.8)" fill="none" stroke="#ffffff" stroke-width="2.2368" stroke-linecap="square" stroke-linejoin="miter" stroke-miterlimit="2" d="M0 0L6.66 0" sodipodi:nodetypes="cc"/><path id="shape49" transform="translate(442.439967390654, 4.8)" fill="none" stroke="#ffffff" stroke-width="2.2368" stroke-linecap="square" stroke-linejoin="miter" stroke-miterlimit="2" d="M0 0L0.72 0" sodipodi:nodetypes="cc"/><path id="shape50" transform="translate(448.379966952855, 4.8)" fill="none" stroke="#ffffff" stroke-width="2.2368" stroke-linecap="square" stroke-linejoin="miter" stroke-miterlimit="2" d="M0 0L5.58 0" sodipodi:nodetypes="cc"/><path id="shape51" transform="translate(458.999966170125, 4.8)" fill="none" stroke="#ffffff" stroke-width="2.2368" stroke-linecap="square" stroke-linejoin="miter" stroke-miterlimit="2" d="M0 0L1.26 0" sodipodi:nodetypes="cc"/><path id="shape52" transform="translate(466.019965652727, 4.8)" fill="none" stroke="#ffffff" stroke-width="2.2368" stroke-linecap="square" stroke-linejoin="miter" stroke-miterlimit="2" d="M0 0L8.46 0" sodipodi:nodetypes="cc"/><path id="shape53" transform="translate(480.419964591397, 4.8)" fill="none" stroke="#ffffff" stroke-width="2.2368" stroke-linecap="square" stroke-linejoin="miter" stroke-miterlimit="2" d="M0 0L0.72 0" sodipodi:nodetypes="cc"/><path id="shape54" transform="translate(485.459964219932, 4.8)" fill="none" stroke="#ffffff" stroke-width="2.2368" stroke-linecap="square" stroke-linejoin="miter" stroke-miterlimit="2" d="M0 0L5.4 0" sodipodi:nodetypes="cc"/><path id="shape55" transform="translate(496.259963423935, 4.8)" fill="none" stroke="#ffffff" stroke-width="2.2368" stroke-linecap="square" stroke-linejoin="miter" stroke-miterlimit="2" d="M0 0L0.72 0" sodipodi:nodetypes="cc"/><path id="shape56" transform="translate(501.119963065736, 4.8)" fill="none" stroke="#ffffff" stroke-width="2.2368" stroke-linecap="square" stroke-linejoin="miter" stroke-miterlimit="2" d="M0 0L6.84 0" sodipodi:nodetypes="cc"/><path id="shape57" transform="translate(512.099962256473, 4.8)" fill="none" stroke="#ffffff" stroke-width="2.2368" stroke-linecap="square" stroke-linejoin="miter" stroke-miterlimit="2" d="M0 0L0.72 0" sodipodi:nodetypes="cc"/><path id="shape58" transform="translate(518.939961752341, 4.8)" fill="none" stroke="#ffffff" stroke-width="2.2368" stroke-linecap="square" stroke-linejoin="miter" stroke-miterlimit="2" d="M0 0L6.48 0" sodipodi:nodetypes="cc"/><path id="shape59" transform="translate(529.919960943077, 4.8)" fill="none" stroke="#ffffff" stroke-width="2.2368" stroke-linecap="square" stroke-linejoin="miter" stroke-miterlimit="2" d="M0 0L0.72 0" sodipodi:nodetypes="cc"/><path id="shape60" transform="translate(534.779960584879, 4.8)" fill="none" stroke="#ffffff" stroke-width="2.2368" stroke-linecap="square" stroke-linejoin="miter" stroke-miterlimit="2" d="M0 0L9.18 0" sodipodi:nodetypes="cc"/><path id="shape61" transform="translate(548.639959563349, 4.8)" fill="none" stroke="#ffffff" stroke-width="2.2368" stroke-linecap="square" stroke-linejoin="miter" stroke-miterlimit="2" d="M0 0L1.26 0" sodipodi:nodetypes="cc"/><path id="shape62" transform="translate(554.399959138817, 4.8)" fill="none" stroke="#ffffff" stroke-width="2.2368" stroke-linecap="square" stroke-linejoin="miter" stroke-miterlimit="2" d="M0 0L7.2 0" sodipodi:nodetypes="cc"/><path id="shape63" transform="translate(566.819958223421, 4.8)" fill="none" stroke="#ffffff" stroke-width="2.2368" stroke-linecap="square" stroke-linejoin="miter" stroke-miterlimit="2" d="M0 0L1.8 0" sodipodi:nodetypes="cc"/><path id="shape64" transform="translate(574.19995767949, 4.8)" fill="none" stroke="#ffffff" stroke-width="2.2368" stroke-linecap="square" stroke-linejoin="miter" stroke-miterlimit="2" d="M0 0L6.66 0" sodipodi:nodetypes="cc"/><path id="shape65" transform="translate(585.359956856959, 4.8)" fill="none" stroke="#ffffff" stroke-width="2.2368" stroke-linecap="square" stroke-linejoin="miter" stroke-miterlimit="2" d="M0 0L1.08 0" sodipodi:nodetypes="cc"/><path id="shape66" transform="translate(591.659956392627, 4.8)" fill="none" stroke="#ffffff" stroke-width="2.2368" stroke-linecap="square" stroke-linejoin="miter" stroke-miterlimit="2" d="M0 0L5.94 0" sodipodi:nodetypes="cc"/><path id="shape67" transform="translate(603.359955530297, 4.8)" fill="none" stroke="#ffffff" stroke-width="2.2368" stroke-linecap="square" stroke-linejoin="miter" stroke-miterlimit="2" d="M0 0L1.26 0" sodipodi:nodetypes="cc"/><path id="shape68" transform="translate(609.299955092499, 4.8)" fill="none" stroke="#ffffff" stroke-width="2.2368" stroke-linecap="square" stroke-linejoin="miter" stroke-miterlimit="2" d="M0 0L5.76 0" sodipodi:nodetypes="cc"/><path id="shape69" transform="translate(620.099954296502, 4.8)" fill="none" stroke="#ffffff" stroke-width="2.2368" stroke-linecap="square" stroke-linejoin="miter" stroke-miterlimit="2" d="M0 0L1.26 0" sodipodi:nodetypes="cc"/>
</svg>
