<!DOCTYPE svg PUBLIC "-//W3C//DTD SVG 1.1//EN" "http://www.w3.org/Graphics/SVG/1.1/DTD/svg11.dtd">
<!-- Uploaded to: SVG Repo, www.svgrepo.com, Transformed by: SVG Repo Mixer Tools -->
<svg fill="#ffffff" height="800px" width="800px" version="1.1" id="Layer_1" xmlns="http://www.w3.org/2000/svg" xmlns:xlink="http://www.w3.org/1999/xlink" viewBox="0 0 512 512" xml:space="preserve" stroke="#ffffff" stroke-width="0.00512">
<g id="SVGRepo_bgCarrier" stroke-width="0"/>
<g id="SVGRepo_tracerCarrier" stroke-linecap="round" stroke-linejoin="round"/>
<g id="SVGRepo_iconCarrier"> <g> <g> <circle cx="114.731" cy="398.222" r="42.667"/> </g> </g> <g> <g> <circle cx="399.175" cy="113.778" r="42.667"/> </g> </g> <g> <g> <path d="M475.409,234.667c-2.076-21.528-7.266-42.158-15.107-61.439c-10.105,10.388-22.821,18.213-37.083,22.41 c4.5,12.429,7.647,25.498,9.274,39.029h-43.072c-9.152-57.448-54.64-102.936-112.088-112.088V79.506 c13.932,1.674,27.375,4.958,40.132,9.674c4.291-14.226,12.207-26.887,22.665-36.927c-19.669-8.152-40.762-13.537-62.797-15.663V0 h-42.667v36.591C130.108,46.679,46.679,130.108,36.591,234.667H0v42.667h36.591c2.128,22.046,7.516,43.15,15.676,62.83 c9.911-10.655,22.5-18.785,36.693-23.29c-4.599-12.581-7.807-25.823-9.454-39.539h43.072 c9.152,57.448,54.639,102.936,112.088,112.087v43.072c-13.309-1.599-26.169-4.673-38.414-9.055 c-4.412,14.234-12.469,26.87-23.057,36.851c19.291,7.848,39.93,13.042,61.471,15.12V512h42.667v-36.591 c104.559-10.088,187.988-93.517,198.076-198.076H512v-42.667H475.409z M234.667,345.931 c-33.866-8.033-60.565-34.734-68.599-68.598h68.599V345.931z M234.667,234.667h-68.599c8.034-33.865,34.734-60.565,68.599-68.598 V234.667z M234.667,122.578c-57.448,9.152-102.936,54.64-112.088,112.088H79.506c9.732-81.008,74.152-145.428,155.16-155.16 V122.578z M277.333,166.069c33.865,8.033,60.565,34.734,68.599,68.598h-68.599V166.069z M277.333,277.333h68.599 c-8.034,33.865-34.733,60.565-68.599,68.598V277.333z M277.333,432.494v-43.072c57.448-9.151,102.936-54.639,112.088-112.087 h43.072C422.761,358.34,358.34,422.761,277.333,432.494z"/> </g> </g> </g>
</svg>